<svg xmlns="http://www.w3.org/2000/svg" xmlns:xlink="http://www.w3.org/1999/xlink" width="500" zoomAndPan="magnify" viewBox="0 0 375 374.999991" height="500" preserveAspectRatio="xMidYMid meet" version="1.2"><defs><clipPath id="f7460d21d7"><path d="M 101.558594 31.601562 L 273.308594 31.601562 L 273.308594 203.351562 L 101.558594 203.351562 Z M 101.558594 31.601562 "/></clipPath></defs><g id="aaf657e352"><g clip-rule="nonzero" clip-path="url(#f7460d21d7)"><path style=" stroke:none;fill-rule:nonzero;fill:#4d7755;fill-opacity:1;" d="M 187.433594 31.605469 C 140.007812 31.605469 101.558594 70.078125 101.558594 117.53125 C 101.558594 163.386719 137.457031 200.855469 182.675781 203.328125 L 185.472656 123.660156 C 180.125 125.667969 176.238281 127.46875 172.757812 129.554688 C 159.859375 136.992188 150.546875 149.066406 145.070312 165.453125 L 144.523438 167.097656 L 143.945312 165.464844 C 139.945312 154.179688 143.589844 141.054688 153.460938 131.1875 C 161.691406 122.960938 172.191406 119.09375 181.980469 120.378906 C 163.96875 112.761719 144.644531 113.570312 127 122.832031 L 125.410156 123.660156 L 126.179688 122.039062 C 131.3125 111.253906 143.167969 104.546875 157.097656 104.546875 C 157.105469 104.546875 157.117188 104.546875 157.125 104.546875 C 168.597656 104.558594 178.628906 109.117188 184.671875 116.753906 C 183.195312 113.167969 181.765625 110.269531 180.1875 107.605469 C 172.757812 94.699219 160.691406 85.382812 144.308594 79.902344 L 142.671875 79.355469 L 144.300781 78.769531 C 155.578125 74.765625 168.695312 78.414062 178.558594 88.289062 C 182.605469 92.351562 185.601562 96.960938 187.445312 101.773438 C 189.296875 96.941406 192.316406 92.300781 196.394531 88.21875 C 206.234375 78.371094 219.332031 74.765625 230.582031 78.769531 L 232.148438 79.324219 L 230.582031 79.890625 C 224.089844 82.230469 219.636719 84.226562 215.6875 86.585938 C 204.308594 93.160156 195.714844 103.339844 190.097656 116.90625 C 196.152344 109.164062 206.265625 104.546875 217.824219 104.546875 C 217.835938 104.546875 217.84375 104.546875 217.855469 104.546875 C 231.765625 104.558594 243.589844 111.261719 248.710938 122.050781 L 249.46875 123.660156 L 247.890625 122.839844 C 230.15625 113.582031 210.820312 112.773438 192.871094 120.398438 C 202.699219 119.101562 213.25 123.011719 221.5 131.277344 C 231.328125 141.125 234.941406 154.230469 230.945312 165.484375 L 230.386719 167.054688 L 229.820312 165.484375 C 227.484375 158.992188 225.488281 154.535156 223.128906 150.59375 C 216.03125 138.257812 204.695312 129.203125 189.410156 123.640625 L 192.203125 203.347656 C 237.414062 200.867188 273.308594 163.410156 273.308594 117.554688 C 273.308594 70.078125 234.863281 31.605469 187.433594 31.605469 Z M 208.90625 58.457031 C 197.394531 58.457031 188.03125 67.828125 188.03125 79.34375 L 186.835938 79.34375 C 186.835938 67.828125 177.472656 58.457031 165.964844 58.457031 L 165.964844 57.261719 C 177.472656 57.261719 186.835938 47.894531 186.835938 36.375 L 188.03125 36.375 C 188.03125 47.894531 197.394531 57.261719 208.90625 57.261719 Z M 208.90625 58.457031 "/></g><g style="fill:#545454;fill-opacity:1;"><g transform="translate(1.896053, 253.881569)"><path style="stroke:none" d="M 16.734375 -19.140625 C 18.367188 -18.941406 19.921875 -18.519531 21.390625 -17.875 C 22.867188 -17.226562 24.070312 -16.265625 25 -14.984375 C 25.9375 -13.703125 26.40625 -12.03125 26.40625 -9.96875 C 26.40625 -8.019531 25.984375 -6.414062 25.140625 -5.15625 C 24.304688 -3.894531 23.257812 -2.910156 22 -2.203125 C 20.738281 -1.492188 19.445312 -0.976562 18.125 -0.65625 C 16.8125 -0.332031 15.640625 -0.128906 14.609375 -0.046875 C 13.578125 0.0234375 12.910156 0.0625 12.609375 0.0625 L 2.75 0.0625 L 2.75 -35.984375 L 13.640625 -35.984375 C 14.171875 -35.984375 14.894531 -35.941406 15.8125 -35.859375 C 16.726562 -35.785156 17.71875 -35.613281 18.78125 -35.34375 C 19.851562 -35.082031 20.875 -34.675781 21.84375 -34.125 C 22.820312 -33.570312 23.617188 -32.828125 24.234375 -31.890625 C 24.847656 -30.953125 25.15625 -29.757812 25.15625 -28.3125 C 25.15625 -26.394531 24.722656 -24.820312 23.859375 -23.59375 C 23.003906 -22.375 21.9375 -21.410156 20.65625 -20.703125 C 19.375 -20.003906 18.066406 -19.484375 16.734375 -19.140625 Z M 11.453125 -35.015625 L 6.875 -35.015625 L 6.875 -19.359375 L 9.96875 -19.359375 C 13.332031 -19.359375 15.988281 -20.035156 17.9375 -21.390625 C 19.882812 -22.753906 20.859375 -24.847656 20.859375 -27.671875 C 20.859375 -30.460938 19.988281 -32.382812 18.25 -33.4375 C 16.507812 -34.488281 14.242188 -35.015625 11.453125 -35.015625 Z M 9.96875 -0.921875 C 12.1875 -0.921875 14.210938 -1.148438 16.046875 -1.609375 C 17.878906 -2.066406 19.347656 -2.90625 20.453125 -4.125 C 21.554688 -5.34375 22.109375 -7.082031 22.109375 -9.34375 C 22.109375 -10.863281 21.820312 -12.3125 21.25 -13.6875 C 20.675781 -15.0625 19.625 -16.1875 18.09375 -17.0625 C 16.570312 -17.945312 14.359375 -18.390625 11.453125 -18.390625 L 6.875 -18.390625 L 6.875 -0.921875 Z M 9.96875 -0.921875 "/></g></g><g style="fill:#545454;fill-opacity:1;"><g transform="translate(29.677626, 253.881569)"><path style="stroke:none" d="M 27.953125 0.0625 L 22.796875 0.0625 L 9.515625 -16.671875 L 6.875 -16.671875 L 6.875 0.0625 L 2.75 0.0625 L 2.75 -35.984375 C 2.75 -35.984375 3.175781 -35.984375 4.03125 -35.984375 C 4.894531 -35.984375 5.9375 -35.984375 7.15625 -35.984375 C 8.382812 -35.984375 9.597656 -35.984375 10.796875 -35.984375 C 12.003906 -35.984375 12.953125 -35.984375 13.640625 -35.984375 C 14.359375 -35.984375 15.359375 -35.878906 16.640625 -35.671875 C 17.921875 -35.460938 19.207031 -35.050781 20.5 -34.4375 C 21.800781 -33.820312 22.898438 -32.910156 23.796875 -31.703125 C 24.703125 -30.503906 25.15625 -28.929688 25.15625 -26.984375 C 25.15625 -25.109375 24.8125 -23.5625 24.125 -22.34375 C 23.4375 -21.125 22.535156 -20.140625 21.421875 -19.390625 C 20.316406 -18.648438 19.148438 -18.085938 17.921875 -17.703125 C 16.703125 -17.316406 15.5625 -17.050781 14.5 -16.90625 Z M 6.875 -35.015625 L 6.875 -17.640625 L 9.96875 -17.640625 C 13.332031 -17.640625 15.988281 -18.289062 17.9375 -19.59375 C 19.882812 -20.894531 20.859375 -23.128906 20.859375 -26.296875 C 20.859375 -29.472656 20.023438 -31.71875 18.359375 -33.03125 C 16.703125 -34.351562 14.398438 -35.015625 11.453125 -35.015625 Z M 6.875 -35.015625 "/></g></g><g style="fill:#545454;fill-opacity:1;"><g transform="translate(58.662125, 253.881569)"><path style="stroke:none" d="M 3.328125 0.0625 L 3.328125 -35.984375 L 7.453125 -35.984375 L 7.453125 0.0625 Z M 3.328125 0.0625 "/></g></g><g style="fill:#545454;fill-opacity:1;"><g transform="translate(68.743521, 253.881569)"><path style="stroke:none" d="M 1.4375 -2.6875 C 2.425781 -1.882812 3.675781 -1.140625 5.1875 -0.453125 C 6.695312 0.234375 8.671875 0.578125 11.109375 0.578125 C 12.679688 0.578125 14.132812 0.269531 15.46875 -0.34375 C 16.800781 -0.957031 17.878906 -1.882812 18.703125 -3.125 C 19.523438 -4.363281 19.9375 -5.921875 19.9375 -7.796875 C 19.9375 -9.398438 19.609375 -10.71875 18.953125 -11.75 C 18.304688 -12.78125 17.4375 -13.640625 16.34375 -14.328125 C 15.257812 -15.015625 14.066406 -15.601562 12.765625 -16.09375 C 11.472656 -16.59375 10.164062 -17.117188 8.84375 -17.671875 C 7.53125 -18.222656 6.328125 -18.878906 5.234375 -19.640625 C 4.148438 -20.410156 3.28125 -21.394531 2.625 -22.59375 C 1.976562 -23.800781 1.65625 -25.320312 1.65625 -27.15625 C 1.65625 -28.957031 2 -30.488281 2.6875 -31.75 C 3.375 -33.007812 4.269531 -34.03125 5.375 -34.8125 C 6.488281 -35.59375 7.675781 -36.164062 8.9375 -36.53125 C 10.195312 -36.894531 11.398438 -37.078125 12.546875 -37.078125 C 14.078125 -37.078125 15.441406 -36.894531 16.640625 -36.53125 C 17.847656 -36.164062 18.800781 -35.800781 19.5 -35.4375 C 20.207031 -35.070312 20.5625 -34.890625 20.5625 -34.890625 L 20.625 -33.75 C 20.625 -33.75 20.289062 -33.9375 19.625 -34.3125 C 18.957031 -34.695312 18.019531 -35.085938 16.8125 -35.484375 C 15.613281 -35.890625 14.191406 -36.09375 12.546875 -36.09375 C 10.097656 -36.09375 8.195312 -35.367188 6.84375 -33.921875 C 5.488281 -32.472656 4.8125 -30.71875 4.8125 -28.65625 C 4.8125 -26.925781 5.257812 -25.523438 6.15625 -24.453125 C 7.050781 -23.390625 8.195312 -22.503906 9.59375 -21.796875 C 10.988281 -21.085938 12.46875 -20.414062 14.03125 -19.78125 C 15.601562 -19.15625 17.082031 -18.429688 18.46875 -17.609375 C 19.863281 -16.796875 21 -15.71875 21.875 -14.375 C 22.757812 -13.039062 23.203125 -11.320312 23.203125 -9.21875 C 23.203125 -7.082031 22.628906 -5.210938 21.484375 -3.609375 C 20.335938 -2.003906 18.835938 -0.765625 16.984375 0.109375 C 15.128906 0.992188 13.171875 1.4375 11.109375 1.4375 C 9.046875 1.4375 7.296875 1.207031 5.859375 0.75 C 4.429688 0.289062 3.335938 -0.164062 2.578125 -0.625 C 1.816406 -1.082031 1.4375 -1.3125 1.4375 -1.3125 Z M 1.4375 -2.6875 "/></g></g><g style="fill:#545454;fill-opacity:1;"><g transform="translate(93.31729, 253.881569)"><path style="stroke:none" d="M 29.96875 0.0625 L 23.78125 -14.4375 L 9.734375 -14.4375 L 3.328125 0.0625 L 2 0.0625 L 18.328125 -36.671875 L 18.671875 -36.671875 L 34.375 0.0625 Z M 10.203125 -15.359375 L 23.375 -15.359375 L 16.90625 -30.484375 Z M 10.203125 -15.359375 "/></g></g><g style="fill:#545454;fill-opacity:1;"><g transform="translate(128.83195, 253.881569)"><path style="stroke:none" d="M 1.4375 -2.6875 C 2.425781 -1.882812 3.675781 -1.140625 5.1875 -0.453125 C 6.695312 0.234375 8.671875 0.578125 11.109375 0.578125 C 12.679688 0.578125 14.132812 0.269531 15.46875 -0.34375 C 16.800781 -0.957031 17.878906 -1.882812 18.703125 -3.125 C 19.523438 -4.363281 19.9375 -5.921875 19.9375 -7.796875 C 19.9375 -9.398438 19.609375 -10.71875 18.953125 -11.75 C 18.304688 -12.78125 17.4375 -13.640625 16.34375 -14.328125 C 15.257812 -15.015625 14.066406 -15.601562 12.765625 -16.09375 C 11.472656 -16.59375 10.164062 -17.117188 8.84375 -17.671875 C 7.53125 -18.222656 6.328125 -18.878906 5.234375 -19.640625 C 4.148438 -20.410156 3.28125 -21.394531 2.625 -22.59375 C 1.976562 -23.800781 1.65625 -25.320312 1.65625 -27.15625 C 1.65625 -28.957031 2 -30.488281 2.6875 -31.75 C 3.375 -33.007812 4.269531 -34.03125 5.375 -34.8125 C 6.488281 -35.59375 7.675781 -36.164062 8.9375 -36.53125 C 10.195312 -36.894531 11.398438 -37.078125 12.546875 -37.078125 C 14.078125 -37.078125 15.441406 -36.894531 16.640625 -36.53125 C 17.847656 -36.164062 18.800781 -35.800781 19.5 -35.4375 C 20.207031 -35.070312 20.5625 -34.890625 20.5625 -34.890625 L 20.625 -33.75 C 20.625 -33.75 20.289062 -33.9375 19.625 -34.3125 C 18.957031 -34.695312 18.019531 -35.085938 16.8125 -35.484375 C 15.613281 -35.890625 14.191406 -36.09375 12.546875 -36.09375 C 10.097656 -36.09375 8.195312 -35.367188 6.84375 -33.921875 C 5.488281 -32.472656 4.8125 -30.71875 4.8125 -28.65625 C 4.8125 -26.925781 5.257812 -25.523438 6.15625 -24.453125 C 7.050781 -23.390625 8.195312 -22.503906 9.59375 -21.796875 C 10.988281 -21.085938 12.46875 -20.414062 14.03125 -19.78125 C 15.601562 -19.15625 17.082031 -18.429688 18.46875 -17.609375 C 19.863281 -16.796875 21 -15.71875 21.875 -14.375 C 22.757812 -13.039062 23.203125 -11.320312 23.203125 -9.21875 C 23.203125 -7.082031 22.628906 -5.210938 21.484375 -3.609375 C 20.335938 -2.003906 18.835938 -0.765625 16.984375 0.109375 C 15.128906 0.992188 13.171875 1.4375 11.109375 1.4375 C 9.046875 1.4375 7.296875 1.207031 5.859375 0.75 C 4.429688 0.289062 3.335938 -0.164062 2.578125 -0.625 C 1.816406 -1.082031 1.4375 -1.3125 1.4375 -1.3125 Z M 1.4375 -2.6875 "/></g></g><g style="fill:#545454;fill-opacity:1;"><g transform="translate(153.405719, 253.881569)"><path style="stroke:none" d=""/></g></g><g style="fill:#545454;fill-opacity:1;"><g transform="translate(166.809472, 253.881569)"><path style="stroke:none" d="M 17.640625 -35.984375 C 18.941406 -35.984375 20.40625 -35.867188 22.03125 -35.640625 C 23.65625 -35.410156 25.28125 -34.96875 26.90625 -34.3125 C 28.53125 -33.664062 30.007812 -32.710938 31.34375 -31.453125 C 32.675781 -30.191406 33.753906 -28.507812 34.578125 -26.40625 C 35.398438 -24.3125 35.8125 -21.695312 35.8125 -18.5625 C 35.8125 -15.3125 35.351562 -12.585938 34.4375 -10.390625 C 33.519531 -8.203125 32.316406 -6.425781 30.828125 -5.0625 C 29.335938 -3.707031 27.738281 -2.664062 26.03125 -1.9375 C 24.332031 -1.21875 22.691406 -0.722656 21.109375 -0.453125 C 19.523438 -0.191406 18.171875 -0.0390625 17.046875 0 C 15.921875 0.0390625 15.203125 0.0625 14.890625 0.0625 L 2.75 0.0625 L 2.75 -35.984375 Z M 14.84375 -0.921875 C 16.789062 -0.921875 18.753906 -1.1875 20.734375 -1.71875 C 22.722656 -2.25 24.539062 -3.164062 26.1875 -4.46875 C 27.832031 -5.769531 29.148438 -7.566406 30.140625 -9.859375 C 31.128906 -12.148438 31.625 -15.050781 31.625 -18.5625 C 31.625 -21.351562 31.28125 -23.722656 30.59375 -25.671875 C 29.90625 -27.617188 28.976562 -29.203125 27.8125 -30.421875 C 26.644531 -31.648438 25.351562 -32.585938 23.9375 -33.234375 C 22.53125 -33.878906 21.09375 -34.328125 19.625 -34.578125 C 18.15625 -34.828125 16.769531 -34.953125 15.46875 -34.953125 L 6.875 -34.953125 L 6.875 -0.921875 Z M 14.84375 -0.921875 "/></g></g><g style="fill:#545454;fill-opacity:1;"><g transform="translate(204.329009, 253.881569)"><path style="stroke:none" d="M 21.03125 -35.015625 L 6.875 -35.015625 L 6.875 -19.25 L 19.484375 -19.25 L 19.484375 -18.28125 L 6.875 -18.28125 L 6.875 -0.921875 L 21.03125 -0.921875 L 21.03125 0.0625 L 2.75 0.0625 L 2.75 -35.984375 L 21.03125 -35.984375 Z M 21.03125 -35.015625 "/></g></g><g style="fill:#545454;fill-opacity:1;"><g transform="translate(226.840624, 253.881569)"><path style="stroke:none" d="M 6.875 -0.921875 L 21.203125 -0.921875 L 21.203125 0.0625 L 2.75 0.0625 L 2.75 -35.984375 L 6.875 -35.984375 Z M 6.875 -0.921875 "/></g></g><g style="fill:#545454;fill-opacity:1;"><g transform="translate(249.294963, 253.881569)"><path style="stroke:none" d=""/></g></g><g style="fill:#545454;fill-opacity:1;"><g transform="translate(262.698715, 253.881569)"><path style="stroke:none" d="M 39.3125 -36.671875 L 43.609375 0.0625 L 39.484375 0 L 36.09375 -28.828125 L 21.3125 -0.921875 L 21.140625 -0.921875 L 6.875 -28.359375 L 3.03125 0.0625 L 2.0625 0.0625 L 7.046875 -36.671875 L 7.21875 -36.671875 L 23.03125 -6.125 L 39.140625 -36.671875 Z M 39.3125 -36.671875 "/></g></g><g style="fill:#545454;fill-opacity:1;"><g transform="translate(307.664936, 253.881569)"><path style="stroke:none" d="M 29.96875 0.0625 L 23.78125 -14.4375 L 9.734375 -14.4375 L 3.328125 0.0625 L 2 0.0625 L 18.328125 -36.671875 L 18.671875 -36.671875 L 34.375 0.0625 Z M 10.203125 -15.359375 L 23.375 -15.359375 L 16.90625 -30.484375 Z M 10.203125 -15.359375 "/></g></g><g style="fill:#545454;fill-opacity:1;"><g transform="translate(343.179596, 253.881569)"><path style="stroke:none" d="M 27.953125 0.0625 L 22.796875 0.0625 L 9.515625 -16.671875 L 6.875 -16.671875 L 6.875 0.0625 L 2.75 0.0625 L 2.75 -35.984375 C 2.75 -35.984375 3.175781 -35.984375 4.03125 -35.984375 C 4.894531 -35.984375 5.9375 -35.984375 7.15625 -35.984375 C 8.382812 -35.984375 9.597656 -35.984375 10.796875 -35.984375 C 12.003906 -35.984375 12.953125 -35.984375 13.640625 -35.984375 C 14.359375 -35.984375 15.359375 -35.878906 16.640625 -35.671875 C 17.921875 -35.460938 19.207031 -35.050781 20.5 -34.4375 C 21.800781 -33.820312 22.898438 -32.910156 23.796875 -31.703125 C 24.703125 -30.503906 25.15625 -28.929688 25.15625 -26.984375 C 25.15625 -25.109375 24.8125 -23.5625 24.125 -22.34375 C 23.4375 -21.125 22.535156 -20.140625 21.421875 -19.390625 C 20.316406 -18.648438 19.148438 -18.085938 17.921875 -17.703125 C 16.703125 -17.316406 15.5625 -17.050781 14.5 -16.90625 Z M 6.875 -35.015625 L 6.875 -17.640625 L 9.96875 -17.640625 C 13.332031 -17.640625 15.988281 -18.289062 17.9375 -19.59375 C 19.882812 -20.894531 20.859375 -23.128906 20.859375 -26.296875 C 20.859375 -29.472656 20.023438 -31.71875 18.359375 -33.03125 C 16.703125 -34.351562 14.398438 -35.015625 11.453125 -35.015625 Z M 6.875 -35.015625 "/></g></g><g style="fill:#4d7755;fill-opacity:1;"><g transform="translate(117.703251, 293.940611)"><path style="stroke:none" d="M 1.0625 -5.34375 L 5.703125 -5.34375 L 5.703125 -4.25 L 1.0625 -4.25 Z M 1.0625 -5.34375 "/></g></g><g style="fill:#4d7755;fill-opacity:1;"><g transform="translate(132.025047, 293.940611)"><path style="stroke:none" d="M 10.46875 0 L 7.640625 -3.984375 C 7.316406 -3.941406 6.988281 -3.921875 6.65625 -3.921875 L 3.328125 -3.921875 L 3.328125 0 L 2.015625 0 L 2.015625 -12.375 L 6.65625 -12.375 C 8.226562 -12.375 9.460938 -12 10.359375 -11.25 C 11.253906 -10.5 11.703125 -9.460938 11.703125 -8.140625 C 11.703125 -7.171875 11.457031 -6.351562 10.96875 -5.6875 C 10.476562 -5.019531 9.78125 -4.539062 8.875 -4.25 L 11.90625 0 Z M 6.609375 -5.046875 C 7.835938 -5.046875 8.773438 -5.316406 9.421875 -5.859375 C 10.078125 -6.398438 10.40625 -7.160156 10.40625 -8.140625 C 10.40625 -9.140625 10.078125 -9.90625 9.421875 -10.4375 C 8.773438 -10.976562 7.835938 -11.25 6.609375 -11.25 L 3.328125 -11.25 L 3.328125 -5.046875 Z M 6.609375 -5.046875 "/></g></g><g style="fill:#4d7755;fill-opacity:1;"><g transform="translate(152.37332, 293.940611)"><path style="stroke:none" d="M 10.765625 -1.125 L 10.765625 0 L 2.015625 0 L 2.015625 -12.375 L 10.5 -12.375 L 10.5 -11.25 L 3.328125 -11.25 L 3.328125 -6.84375 L 9.734375 -6.84375 L 9.734375 -5.734375 L 3.328125 -5.734375 L 3.328125 -1.125 Z M 10.765625 -1.125 "/></g></g><g style="fill:#4d7755;fill-opacity:1;"><g transform="translate(171.767247, 293.940611)"><path style="stroke:none" d="M 5.4375 0.109375 C 4.507812 0.109375 3.625 -0.0351562 2.78125 -0.328125 C 1.9375 -0.628906 1.285156 -1.019531 0.828125 -1.5 L 1.34375 -2.515625 C 1.789062 -2.066406 2.382812 -1.703125 3.125 -1.421875 C 3.875 -1.148438 4.644531 -1.015625 5.4375 -1.015625 C 6.539062 -1.015625 7.367188 -1.21875 7.921875 -1.625 C 8.472656 -2.03125 8.75 -2.554688 8.75 -3.203125 C 8.75 -3.691406 8.597656 -4.082031 8.296875 -4.375 C 8.003906 -4.675781 7.640625 -4.90625 7.203125 -5.0625 C 6.765625 -5.226562 6.15625 -5.40625 5.375 -5.59375 C 4.445312 -5.820312 3.703125 -6.046875 3.140625 -6.265625 C 2.585938 -6.484375 2.113281 -6.816406 1.71875 -7.265625 C 1.320312 -7.710938 1.125 -8.320312 1.125 -9.09375 C 1.125 -9.71875 1.289062 -10.285156 1.625 -10.796875 C 1.957031 -11.304688 2.460938 -11.710938 3.140625 -12.015625 C 3.828125 -12.328125 4.679688 -12.484375 5.703125 -12.484375 C 6.398438 -12.484375 7.085938 -12.382812 7.765625 -12.1875 C 8.453125 -12 9.039062 -11.734375 9.53125 -11.390625 L 9.09375 -10.34375 C 8.570312 -10.6875 8.015625 -10.941406 7.421875 -11.109375 C 6.835938 -11.285156 6.265625 -11.375 5.703125 -11.375 C 4.609375 -11.375 3.785156 -11.164062 3.234375 -10.75 C 2.691406 -10.332031 2.421875 -9.789062 2.421875 -9.125 C 2.421875 -8.632812 2.570312 -8.238281 2.875 -7.9375 C 3.175781 -7.632812 3.550781 -7.398438 4 -7.234375 C 4.457031 -7.078125 5.070312 -6.90625 5.84375 -6.71875 C 6.75 -6.5 7.476562 -6.28125 8.03125 -6.0625 C 8.59375 -5.84375 9.066406 -5.507812 9.453125 -5.0625 C 9.847656 -4.625 10.046875 -4.023438 10.046875 -3.265625 C 10.046875 -2.640625 9.875 -2.070312 9.53125 -1.5625 C 9.195312 -1.050781 8.679688 -0.644531 7.984375 -0.34375 C 7.296875 -0.0390625 6.445312 0.109375 5.4375 0.109375 Z M 5.4375 0.109375 "/></g></g><g style="fill:#4d7755;fill-opacity:1;"><g transform="translate(190.206829, 293.940611)"><path style="stroke:none" d="M 7.421875 0.109375 C 6.203125 0.109375 5.09375 -0.160156 4.09375 -0.703125 C 3.09375 -1.253906 2.3125 -2.007812 1.75 -2.96875 C 1.195312 -3.925781 0.921875 -5 0.921875 -6.1875 C 0.921875 -7.382812 1.195312 -8.457031 1.75 -9.40625 C 2.3125 -10.363281 3.09375 -11.113281 4.09375 -11.65625 C 5.09375 -12.207031 6.203125 -12.484375 7.421875 -12.484375 C 8.648438 -12.484375 9.753906 -12.210938 10.734375 -11.671875 C 11.722656 -11.128906 12.5 -10.378906 13.0625 -9.421875 C 13.632812 -8.460938 13.921875 -7.382812 13.921875 -6.1875 C 13.921875 -5 13.632812 -3.921875 13.0625 -2.953125 C 12.5 -1.992188 11.722656 -1.242188 10.734375 -0.703125 C 9.753906 -0.160156 8.648438 0.109375 7.421875 0.109375 Z M 7.421875 -1.0625 C 8.398438 -1.0625 9.285156 -1.28125 10.078125 -1.71875 C 10.867188 -2.164062 11.488281 -2.78125 11.9375 -3.5625 C 12.382812 -4.34375 12.609375 -5.21875 12.609375 -6.1875 C 12.609375 -7.15625 12.382812 -8.03125 11.9375 -8.8125 C 11.488281 -9.601562 10.867188 -10.21875 10.078125 -10.65625 C 9.285156 -11.09375 8.398438 -11.3125 7.421875 -11.3125 C 6.441406 -11.3125 5.554688 -11.09375 4.765625 -10.65625 C 3.972656 -10.21875 3.347656 -9.601562 2.890625 -8.8125 C 2.441406 -8.03125 2.21875 -7.15625 2.21875 -6.1875 C 2.21875 -5.21875 2.441406 -4.34375 2.890625 -3.5625 C 3.347656 -2.78125 3.972656 -2.164062 4.765625 -1.71875 C 5.554688 -1.28125 6.441406 -1.0625 7.421875 -1.0625 Z M 7.421875 -1.0625 "/></g></g><g style="fill:#4d7755;fill-opacity:1;"><g transform="translate(212.60516, 293.940611)"><path style="stroke:none" d="M 10.46875 0 L 7.640625 -3.984375 C 7.316406 -3.941406 6.988281 -3.921875 6.65625 -3.921875 L 3.328125 -3.921875 L 3.328125 0 L 2.015625 0 L 2.015625 -12.375 L 6.65625 -12.375 C 8.226562 -12.375 9.460938 -12 10.359375 -11.25 C 11.253906 -10.5 11.703125 -9.460938 11.703125 -8.140625 C 11.703125 -7.171875 11.457031 -6.351562 10.96875 -5.6875 C 10.476562 -5.019531 9.78125 -4.539062 8.875 -4.25 L 11.90625 0 Z M 6.609375 -5.046875 C 7.835938 -5.046875 8.773438 -5.316406 9.421875 -5.859375 C 10.078125 -6.398438 10.40625 -7.160156 10.40625 -8.140625 C 10.40625 -9.140625 10.078125 -9.90625 9.421875 -10.4375 C 8.773438 -10.976562 7.835938 -11.25 6.609375 -11.25 L 3.328125 -11.25 L 3.328125 -5.046875 Z M 6.609375 -5.046875 "/></g></g><g style="fill:#4d7755;fill-opacity:1;"><g transform="translate(232.953432, 293.940611)"><path style="stroke:none" d="M 4.421875 -11.25 L 0.078125 -11.25 L 0.078125 -12.375 L 10.078125 -12.375 L 10.078125 -11.25 L 5.734375 -11.25 L 5.734375 0 L 4.421875 0 Z M 4.421875 -11.25 "/></g></g><g style="fill:#4d7755;fill-opacity:1;"><g transform="translate(250.668435, 293.940611)"><path style="stroke:none" d="M 1.0625 -5.34375 L 5.703125 -5.34375 L 5.703125 -4.25 L 1.0625 -4.25 Z M 1.0625 -5.34375 "/></g></g></g></svg>